<svg id="fb" xmlns="http://www.w3.org/2000/svg" width="47.868" height="47.868" viewBox="0 0 47.868 47.868">
  <g id="Grupo_118" data-name="Grupo 118" transform="translate(0)">
    <path id="Trazado_115" data-name="Trazado 115" d="M1228.129,323.514H1209.58a14.676,14.676,0,0,1-14.66-14.66V290.305a14.676,14.676,0,0,1,14.66-14.659h18.548a14.676,14.676,0,0,1,14.659,14.659v18.548A14.676,14.676,0,0,1,1228.129,323.514Zm-18.548-46.09a12.9,12.9,0,0,0-12.882,12.882v18.548a12.9,12.9,0,0,0,12.882,12.882h18.548a12.9,12.9,0,0,0,12.881-12.882V290.305a12.9,12.9,0,0,0-12.881-12.882Z" transform="translate(-1194.92 -275.646)" fill="#fff"/>
  </g>
  <path id="Trazado_116" data-name="Trazado 116" d="M1230.306,290.224l-3.726-.083A5.461,5.461,0,0,0,1221,295.6v3.534h-3.462a.258.258,0,0,0-.258.258v4.441a.258.258,0,0,0,.258.258H1221v11.237a.258.258,0,0,0,.258.258h4.584a.258.258,0,0,0,.258-.258V304.091h3.491a.258.258,0,0,0,.256-.224l.577-4.441a.257.257,0,0,0-.256-.291H1226.1V296.89a2.56,2.56,0,0,1,.473-1.713,1.4,1.4,0,0,1,1.1-.428h2.634a.258.258,0,0,0,.258-.258v-4.009A.257.257,0,0,0,1230.306,290.224Z" transform="translate(-1199.984 -278.929)" fill="#fff"/>
</svg>
