<svg id="ig" xmlns="http://www.w3.org/2000/svg" width="47.868" height="47.868" viewBox="0 0 47.868 47.868">
  <g id="Grupo_113" data-name="Grupo 113" transform="translate(0)">
    <path id="Trazado_109" data-name="Trazado 109" d="M1134.318,323.514h-18.548a14.676,14.676,0,0,1-14.66-14.66V290.305a14.676,14.676,0,0,1,14.66-14.659h18.548a14.676,14.676,0,0,1,14.659,14.659v18.548A14.676,14.676,0,0,1,1134.318,323.514Zm-18.548-46.09a12.9,12.9,0,0,0-12.882,12.881v18.548a12.9,12.9,0,0,0,12.882,12.882h18.548a12.9,12.9,0,0,0,12.881-12.882V290.305a12.9,12.9,0,0,0-12.881-12.881Z" transform="translate(-1101.109 -275.646)" fill="#fff"/>
  </g>
  <g id="Grupo_114" data-name="Grupo 114" transform="translate(12.326 12.326)">
    <path id="Trazado_110" data-name="Trazado 110" d="M1133.573,291.581h-9.841a6.7,6.7,0,0,0-6.688,6.688v9.841a6.7,6.7,0,0,0,6.688,6.688h9.841a6.7,6.7,0,0,0,6.688-6.688v-9.841A6.7,6.7,0,0,0,1133.573,291.581Zm4.318,16.529a4.323,4.323,0,0,1-4.318,4.318h-9.841a4.324,4.324,0,0,1-4.318-4.318v-9.841a4.323,4.323,0,0,1,4.318-4.318h9.841a4.323,4.323,0,0,1,4.318,4.318Z" transform="translate(-1117.044 -291.581)" fill="#fff"/>
    <path id="Trazado_111" data-name="Trazado 111" d="M1130.473,299.618a5.391,5.391,0,1,0,5.391,5.391A5.4,5.4,0,0,0,1130.473,299.618Zm0,8.3a2.913,2.913,0,1,1,2.912-2.913A2.916,2.916,0,0,1,1130.473,307.922Z" transform="translate(-1118.865 -293.401)" fill="#fff"/>
    <path id="Trazado_112" data-name="Trazado 112" d="M1139.394,296.6a1.6,1.6,0,1,0,1.6,1.6A1.6,1.6,0,0,0,1139.394,296.6Z" transform="translate(-1121.744 -292.717)" fill="#fff"/>
  </g>
</svg>
