<svg id="yt" xmlns="http://www.w3.org/2000/svg" width="47.868" height="47.868" viewBox="0 0 47.868 47.868">
  <g id="Grupo_116" data-name="Grupo 116">
    <path id="Trazado_113" data-name="Trazado 113" d="M1040.507,323.514h-18.548a14.676,14.676,0,0,1-14.66-14.66V290.305a14.676,14.676,0,0,1,14.66-14.659h18.548a14.676,14.676,0,0,1,14.659,14.659v18.548A14.676,14.676,0,0,1,1040.507,323.514Zm-18.548-46.09a12.9,12.9,0,0,0-12.882,12.882v18.548a12.9,12.9,0,0,0,12.882,12.882h18.548a12.9,12.9,0,0,0,12.881-12.882V290.305a12.9,12.9,0,0,0-12.881-12.882Z" transform="translate(-1007.298 -275.646)" fill="#fff"/>
  </g>
  <path id="Trazado_114" data-name="Trazado 114" d="M1042.363,293.814H1026.4a5.2,5.2,0,0,0-5.2,5.2v9.366a5.2,5.2,0,0,0,5.2,5.2h15.963a5.2,5.2,0,0,0,5.2-5.2v-9.366A5.2,5.2,0,0,0,1042.363,293.814Zm-11.228,14.215v-8.668a.883.883,0,0,1,1.335-.757l7.244,4.335a.882.882,0,0,1,0,1.514l-7.244,4.334A.882.882,0,0,1,1031.134,308.029Z" transform="translate(-1010.447 -279.761)" fill="#fff"/>
</svg>
