<?xml version="1.0" encoding="UTF-8" standalone="no"?><!DOCTYPE svg PUBLIC "-//W3C//DTD SVG 1.1//EN" "http://www.w3.org/Graphics/SVG/1.1/DTD/svg11.dtd"><svg width="100%" height="100%" viewBox="0 0 111 76" version="1.1" xmlns="http://www.w3.org/2000/svg" xmlns:xlink="http://www.w3.org/1999/xlink" xml:space="preserve" xmlns:serif="http://www.serif.com/" style="fill-rule:evenodd;clip-rule:evenodd;stroke-linejoin:round;stroke-miterlimit:1.41421;"><g><path d="M30.238,75.153l-6.14,-5.686l31.017,-3.602l15.001,9.288l-39.878,0Z" style="fill:#b61b27;fill-rule:nonzero;"/><path d="M82.51,50.805l-65.342,12.243l5.681,5.261l30.086,-3.793c-0.45,-0.223 -0.571,-0.536 -0.571,-0.862c0,-0.368 0.294,-0.745 0.765,-0.804c0.331,-0.041 16.722,-2.453 17.842,-2.618c0.57,-0.083 1.876,-0.312 3.368,-1.028c1.367,-0.658 2.251,-1.393 2.838,-1.921c0.39,-0.353 1.713,-1.691 2.562,-2.639c0.604,-0.673 1.034,-1.166 1.397,-1.589c0.393,-0.456 1.234,-1.47 1.57,-1.928c0.098,-0.135 0.019,-0.345 -0.196,-0.322" style="fill:#b61b27;fill-rule:nonzero;"/><path d="M92.733,36.488l-81.574,20.997l4.91,4.546l25.101,-4.797c-0.443,-0.255 -0.662,-0.454 -0.662,-0.882c0,-0.298 0.187,-0.724 0.684,-0.827l40.842,-7.912c0.566,-0.11 1.963,-0.439 3.368,-1.314c1.323,-0.824 2.025,-1.641 2.446,-2.116c0.54,-0.607 1.502,-1.844 2.209,-2.799c0.532,-0.714 0.976,-1.404 1.332,-1.916c0.356,-0.512 1.246,-1.971 1.615,-2.627c0.1,-0.176 -0.035,-0.414 -0.27,-0.353" style="fill:#b61b27;fill-rule:nonzero;"/><path d="M81.942,12.771c1.12,-0.466 6.513,-2.795 7.738,-3.355c1.192,-0.543 4.809,-2.166 6.137,-2.764c1.47,-0.662 5.765,-2.678 6.41,-2.987c3.018,-1.444 6.747,-3.223 7.508,-3.632c0.2,-0.107 0.524,0.058 0.428,0.366c-0.432,1.396 -1.178,3.555 -2.247,6.032c-0.531,1.229 -1.342,3.052 -2.043,4.204c-0.874,1.439 -1.788,2.417 -2.514,3.07c-1.506,1.354 -2.759,2.096 -4.061,2.604c-0.862,0.337 -2.551,1.004 -3.68,1.437c-0.276,0.106 -4.826,1.812 -5.753,2.111l-80.493,28.403c-1.882,0.651 -4.08,1.912 -4.08,4.348c0,1.059 0.654,2.424 1.905,3.598l20.323,18.947l-9.418,0c-0.171,-0.545 -0.484,-1.318 -0.818,-1.893c-0.331,-0.569 -0.575,-1.079 -1.582,-2.087c-0.805,-0.803 -1.62,-1.639 -1.904,-1.922l-10.729,-10.73c-1.98,-1.98 -3.069,-4.512 -3.069,-6.844c0,-3.228 1.789,-6.306 7.125,-8.491l74.817,-30.415Z" style="fill:#b61b27;fill-rule:nonzero;"/><path d="M90.81,23.566c1.109,-0.37 3.13,-1.061 3.667,-1.252c0.539,-0.192 2.622,-0.953 2.991,-1.094c1.496,-0.57 2.911,-1.109 4.362,-1.72c0.234,-0.09 0.478,0.087 0.371,0.343c-0.17,0.408 -1.101,2.397 -1.359,2.872c-0.665,1.226 -1.252,2.342 -1.923,3.383c-0.589,0.911 -1.463,2.279 -1.983,2.905c-0.906,1.095 -1.634,1.807 -2.914,2.677c-1.59,1.084 -3.067,1.48 -3.681,1.662l-59.303,15.946c-0.447,0.103 -0.624,0.562 -0.624,0.822c0,0.334 0.214,0.652 0.602,0.836l-21.011,5.467l-1.715,-1.602c-0.633,-0.579 -0.913,-1.36 -0.913,-1.957c0,-1.547 1.207,-2.264 3.064,-2.872l80.369,-26.416Z" style="fill:#b61b27;fill-rule:nonzero;"/></g></svg>