<?xml version="1.0" encoding="UTF-8"?>
<svg width="58px" height="40px" viewBox="0 0 58 40" version="1.1" xmlns="http://www.w3.org/2000/svg" xmlns:xlink="http://www.w3.org/1999/xlink">
    <!-- Generator: Sketch 49.3 (51167) - http://www.bohemiancoding.com/sketch -->
    <title>logo-honda-mini</title>
    <desc>Created with Sketch.</desc>
    <defs></defs>
    <g id="Page-1" stroke="none" stroke-width="1" fill="none" fill-rule="evenodd">
        <g id="logo-honda-mini" fill="#FFFFFF" fill-rule="nonzero">
            <polygon id="Shape" points="15.9147368 39.5542105 12.6831579 36.5615789 29.0078947 34.6657895 36.9031579 39.5542105"></polygon>
            <path d="M43.4263158,26.7394737 L9.03578947,33.1831579 L12.0257895,35.9521053 L27.8605263,33.9557895 C27.6236842,33.8384211 27.56,33.6736842 27.56,33.5021053 C27.56,33.3084211 27.7147368,33.11 27.9626316,33.0789474 C28.1368421,33.0573684 36.7636842,31.7878947 37.3531579,31.7010526 C37.6531579,31.6573684 38.3405263,31.5368421 39.1257895,31.16 C39.8452632,30.8136842 40.3105263,30.4268421 40.6194737,30.1489474 C40.8247368,29.9631579 41.5210526,29.2589474 41.9678947,28.76 C42.2857895,28.4057895 42.5121053,28.1463158 42.7031579,27.9236842 C42.91,27.6836842 43.3526316,27.15 43.5294737,26.9089474 C43.5810526,26.8378947 43.5394737,26.7273684 43.4263158,26.7394737" id="Shape"></path>
            <path d="M48.8068421,19.2042105 L5.87315789,30.2552632 L8.45736842,32.6478947 L21.6684211,30.1231579 C21.4352632,29.9889474 21.32,29.8842105 21.32,29.6589474 C21.32,29.5021053 21.4184211,29.2778947 21.68,29.2236842 L43.1757895,25.0594737 C43.4736842,25.0015789 44.2089474,24.8284211 44.9484211,24.3678947 C45.6447368,23.9342105 46.0142105,23.5042105 46.2357895,23.2542105 C46.52,22.9347368 47.0263158,22.2836842 47.3984211,21.7810526 C47.6784211,21.4052632 47.9121053,21.0421053 48.0994737,20.7726316 C48.2868421,20.5031579 48.7552632,19.7352632 48.9494737,19.39 C49.0021053,19.2973684 48.9310526,19.1721053 48.8073684,19.2042105" id="Shape"></path>
            <path d="M43.1273684,6.72157895 C43.7168421,6.47631579 46.5552632,5.25052632 47.2,4.95578947 C47.8273684,4.67 49.7310526,3.81578947 50.43,3.50105263 C51.2036842,3.15263158 53.4642105,2.09157895 53.8036842,1.92894737 C55.3921053,1.16894737 57.3547368,0.232631579 57.7552632,0.0173684211 C57.8605263,-0.0389473684 58.0310526,0.0478947368 57.9805263,0.21 C57.7531579,0.944736842 57.3605263,2.08105263 56.7978947,3.38473684 C56.5184211,4.03157895 56.0915789,4.99105263 55.7226316,5.59736842 C55.2626316,6.35473684 54.7815789,6.86947368 54.3994737,7.21315789 C53.6068421,7.92578947 52.9473684,8.31631579 52.2621053,8.58368421 C51.8084211,8.76105263 50.9194737,9.11210526 50.3252632,9.34 C50.18,9.39578947 47.7852632,10.2936842 47.2973684,10.4510526 L4.93263158,25.4 C3.94210526,25.7426316 2.78526316,26.4063158 2.78526316,27.6884211 C2.78526316,28.2457895 3.12947368,28.9642105 3.78789474,29.5821053 L14.4842105,39.5542105 L9.52736842,39.5542105 C9.43736842,39.2673684 9.27263158,38.8605263 9.09684211,38.5578947 C8.92263158,38.2584211 8.79421053,37.99 8.26421053,37.4594737 C7.84052632,37.0368421 7.41157895,36.5968421 7.26210526,36.4478947 L1.61526316,30.8005263 C0.573157895,29.7584211 -2.84217094e-14,28.4257895 -2.84217094e-14,27.1984211 C-2.84217094e-14,25.4994737 0.941578947,23.8794737 3.75,22.7294737 L43.1273684,6.72157895 Z" id="Shape"></path>
            <path d="M47.7947368,12.4031579 C48.3784211,12.2084211 49.4421053,11.8447368 49.7247368,11.7442105 C50.0084211,11.6431579 51.1047368,11.2426316 51.2989474,11.1684211 C52.0863158,10.8684211 52.8310526,10.5847368 53.5947368,10.2631579 C53.7178947,10.2157895 53.8463158,10.3089474 53.79,10.4436842 C53.7005263,10.6584211 53.2105263,11.7052632 53.0747368,11.9552632 C52.7247368,12.6005263 52.4157895,13.1878947 52.0626316,13.7357895 C51.7526316,14.2152632 51.2926316,14.9352632 51.0189474,15.2647368 C50.5421053,15.8410526 50.1589474,16.2157895 49.4852632,16.6736842 C48.6484211,17.2442105 47.8710526,17.4526316 47.5478947,17.5484211 L16.3357895,25.9410526 C16.1005263,25.9952632 16.0073684,26.2368421 16.0073684,26.3736842 C16.0073684,26.5494737 16.12,26.7168421 16.3242105,26.8136842 L5.26578947,29.6910526 L4.36315789,28.8478947 C4.03,28.5431579 3.88263158,28.1321053 3.88263158,27.8178947 C3.88263158,27.0036842 4.51789474,26.6263158 5.49526316,26.3063158 L47.7947368,12.4031579 Z" id="Shape"></path>
        </g>
    </g>
</svg>