<?xml version="1.0" encoding="UTF-8"?>
<svg width="152px" height="24px" viewBox="0 0 152 24" version="1.1" xmlns="http://www.w3.org/2000/svg" xmlns:xlink="http://www.w3.org/1999/xlink">
    <!-- Generator: Sketch 49.3 (51167) - http://www.bohemiancoding.com/sketch -->
    <title>logo-honda-white</title>
    <desc>Created with Sketch.</desc>
    <defs></defs>
    <g id="Page-1" stroke="none" stroke-width="1" fill="none" fill-rule="evenodd">
        <g id="logo-honda-white" fill="#FFFFFF">
            <path d="M16.1622,11.1476 L3.3035,15.3373 L2.879,15.5165 C1.6797,16.2248 2.6312,16.8531 3.0862,17.3395 L9.6479,15.6597 C9.3547,15.4006 9.4793,15.2093 9.7532,15.0981 C10.8086,14.8142 13.3032,14.1659 16.1622,13.4197 C21.7091,11.9712 28.6219,10.1449 29.0336,9.855 C30.5021,8.8689 30.9552,7.4004 31.7088,5.9246 L28.1721,7.2305 L16.1622,11.1476 Z" id="Fill-1"></path>
            <path d="M16.1622,20.4009 C13.7016,20.6894 7.4904,21.421 7.4904,21.3737 L9.3214,23.0767 L21.6931,23.0767 L17.161,20.2843 L16.1622,20.4009 Z" id="Fill-2"></path>
            <path d="M32.0244,0.9827 L27.7382,2.9163 L16.162,7.633 L2.2185,13.3138 C0.5828,14.074 0.0744,14.6364 0.0058,15.7811 C-0.0355,16.4174 0.1317,17.095 0.9246,17.8886 L5.0883,22.0489 C5.3588,22.3221 5.4954,22.7372 5.6153,23.077 L8.551,23.077 L2.4997,17.5214 C2.1259,17.173 1.8561,16.8272 1.6868,16.4794 C1.5796,15.5759 1.8774,15.1654 2.9774,14.7856 L16.162,10.1576 L30.0169,5.303 C32.3142,4.7433 33.4283,2.6478 34.1172,0 L32.0244,0.9827 Z" id="Fill-3"></path>
            <path d="M3.4855,17.653 L5.004,19.0662 C5.3438,18.945 12.7243,17.6264 12.7902,17.5791 C12.5157,17.4691 12.5217,17.1193 12.8975,17.0307 L16.1623,16.4051 L25.8409,14.5474 C26.9469,14.1597 27.6739,13.2089 28.8492,11.2386 L16.1623,14.4468 L3.4855,17.653 Z" id="Fill-4"></path>
            <path d="M5.3939,19.3637 L7.0896,21.0201 L16.1625,19.8454 L16.393,19.8134 C16.1965,19.5955 16.1818,19.423 16.495,19.277 C16.7255,19.2357 19.3527,18.9606 22.4716,18.3736 C23.5377,18.1983 24.8249,16.6972 25.7358,15.6151 C22.5376,16.1728 19.3527,16.7678 16.1625,17.3741 C12.5752,18.0491 8.9892,18.73 5.3939,19.3637" id="Fill-5"></path>
            <path d="M117.893,20.475 L117.374,20.475 L113.405,20.475 L113.405,12.6081 L117.893,12.6081 C119.823,12.6081 121.378,13.5483 121.339,16.6339 C121.306,19.3224 120.377,20.475 117.893,20.475 M127.399,16.7271 C127.399,15.6118 127.212,14.6803 126.891,13.9094 C125.558,10.6939 121.973,10.1202 120.192,10.0509 L117.374,10.0509 L105.804,10.0509 L105.804,11.7746 C106.654,11.7706 108.248,11.8439 108.253,12.6081 L108.253,20.475 C107.819,21.0734 106.56,21.2646 105.652,21.2646 L105.652,23.0329 L120.192,23.0329 C122.027,23.1109 125.568,21.9622 126.891,19.1824 C127.227,18.4728 127.42,17.6553 127.399,16.7271" id="Fill-6"></path>
            <path d="M137.416,16.7109 L134.841,16.7109 L137.359,12.6105 L137.416,12.7005 L139.99,16.7109 L137.416,16.7109 Z M148.484,20.4734 L142.235,10.7582 C141.968,10.3718 141.646,10.1306 141.267,10.0506 L137.416,10.0506 L130.763,10.0506 L130.763,11.775 C131.896,11.7977 134.494,11.8583 133.556,13.2508 L129.05,20.4734 C128.628,21.0011 127.712,21.193 126.891,21.2437 C126.712,21.2537 126.542,21.2657 126.374,21.2657 L126.374,23.0333 L126.891,23.0333 L134.877,23.0207 L134.877,21.2657 C133.995,21.2603 131.909,21.213 132.901,19.7932 L133.444,18.9803 L141.437,18.9803 L142.025,19.8671 C142.944,21.2657 140.676,21.2657 139.873,21.2657 L139.873,23.0333 L151.248,23.0333 L151.248,21.2657 C150.34,21.2657 149.054,21.2657 148.484,20.4734 Z" id="Fill-7"></path>
            <path d="M70.1699,21.047 L70.1673,21.047 C66.2675,21.047 65.4199,18.9795 65.4199,16.5582 C65.4199,14.1329 65.9623,12.066 70.1673,12.066 L70.1699,12.066 C74.3789,12.066 74.9199,14.1329 74.9199,16.5582 C74.9199,18.9795 74.0697,21.047 70.1699,21.047 M70.1699,9.5068 L70.1673,9.5068 C62.6575,9.5068 59.2574,12.6117 59.2574,16.363 C59.2574,20.384 62.4229,23.4936 70.1673,23.4936 L70.1699,23.4936 C77.9196,23.4936 81.0778,20.384 81.0778,16.363 C81.0778,12.6117 77.6824,9.5068 70.1699,9.5068" id="Fill-8"></path>
            <path d="M96.3788,11.7749 C97.2929,11.7702 99.0119,11.8242 99.0179,12.6104 L99.0179,19.6384 L92.0245,10.4963 C91.8693,10.2357 91.6214,10.0872 91.2843,10.0505 L81.5185,10.0505 L81.5185,11.7749 C82.4239,11.7895 84.1823,11.8582 84.1883,12.6104 L84.1883,20.474 C84.1823,20.9317 82.3826,21.2655 81.5185,21.2655 L81.5185,23.0332 L90.1076,23.0332 L90.1076,21.2655 C89.1128,21.2655 87.4358,21.0583 87.4291,20.474 L87.4291,13.5219 L94.216,22.3016 C94.5365,22.7374 94.9542,22.9886 95.5019,23.0205 L102.166,23.0205 L102.166,12.5964 C102.175,11.9774 103.769,11.7749 104.798,11.7749 L104.798,10.0505 L96.3788,10.0505 L96.3788,11.7749 Z" id="Fill-9"></path>
            <path d="M48.154,11.7749 C49.0568,11.7749 50.8671,11.7749 50.8591,12.6104 L50.8591,15.2849 L42.6424,15.2849 L42.6424,12.6104 C42.6318,11.7749 44.4701,11.7749 45.3462,11.7749 L45.3462,10.0505 L34.9294,10.0505 L34.9294,11.8122 C35.7103,11.7749 37.4174,11.7749 37.4627,12.6104 L37.4627,20.474 C37.482,21.2735 35.7496,21.2735 34.9294,21.2735 L34.9294,23.0325 L45.3462,23.0332 L45.3462,21.2735 C44.568,21.2735 42.6318,21.2735 42.6424,20.474 L42.6424,17.9254 L50.8591,17.9254 L50.8591,20.474 C50.8671,21.2735 49.0775,21.2735 48.154,21.2735 L48.154,23.0325 L58.776,23.0332 L58.776,21.2735 C57.9891,21.2735 56.1968,21.2735 56.1968,20.474 L56.1968,12.6104 C56.1968,11.7749 58.0098,11.7396 58.776,11.7749 L58.776,10.0505 L48.154,10.0505 L48.154,11.7749 Z" id="Fill-10"></path>
        </g>
    </g>
</svg>