<?xml version="1.0" encoding="UTF-8"?>
<!DOCTYPE svg PUBLIC "-//W3C//DTD SVG 1.1//EN" "http://www.w3.org/Graphics/SVG/1.1/DTD/svg11.dtd">
<svg xmlns="http://www.w3.org/2000/svg" version="1.1" width="300px" height="84px" style="shape-rendering:geometricPrecision; text-rendering:geometricPrecision; image-rendering:optimizeQuality; fill-rule:evenodd; clip-rule:evenodd" xmlns:xlink="http://www.w3.org/1999/xlink">
<g><path style="opacity:0.933" fill="#d2504a" d="M 5.5,-0.5 C 14.5,-0.5 23.5,-0.5 32.5,-0.5C 32.5,1.5 32.5,3.5 32.5,5.5C 30.5,5.83333 28.5,6.16667 26.5,6.5C 26.5,8.5 26.5,10.5 26.5,12.5C 32.5,12.5 38.5,12.5 44.5,12.5C 45.4177,7.50525 43.4177,5.17191 38.5,5.5C 38.5,3.5 38.5,1.5 38.5,-0.5C 47.5,-0.5 56.5,-0.5 65.5,-0.5C 65.5,1.5 65.5,3.5 65.5,5.5C 63.5,5.83333 61.5,6.16667 59.5,6.5C 59.5,13.5 59.5,20.5 59.5,27.5C 61.5,27.5 63.5,27.5 65.5,27.5C 65.5,29.5 65.5,31.5 65.5,33.5C 56.5,33.5 47.5,33.5 38.5,33.5C 38.5,31.5 38.5,29.5 38.5,27.5C 40.5,27.5 42.5,27.5 44.5,27.5C 44.5,25.1667 44.5,22.8333 44.5,20.5C 38.5,20.5 32.5,20.5 26.5,20.5C 26.5,22.8333 26.5,25.1667 26.5,27.5C 28.5,27.5 30.5,27.5 32.5,27.5C 32.5,29.5 32.5,31.5 32.5,33.5C 23.5,33.5 14.5,33.5 5.5,33.5C 5.5,31.5 5.5,29.5 5.5,27.5C 7.5,27.5 9.5,27.5 11.5,27.5C 11.5,20.5 11.5,13.5 11.5,6.5C 9.5,6.16667 7.5,5.83333 5.5,5.5C 5.5,3.5 5.5,1.5 5.5,-0.5 Z"/></g>
<g><path style="opacity:0.935" fill="#d14f49" d="M 81.5,-0.5 C 89.1667,-0.5 96.8333,-0.5 104.5,-0.5C 118.248,3.32835 122.748,11.995 118,25.5C 111.308,32.7656 102.974,35.7656 93,34.5C 81.8425,36.3594 73.1758,32.6927 67,23.5C 64.1329,15.1001 66.2996,8.26677 73.5,3C 76.3093,1.9066 78.976,0.739932 81.5,-0.5 Z M 87.5,6.5 C 91.1817,6.3347 94.8484,6.50137 98.5,7C 102.586,8.79742 104.586,11.9641 104.5,16.5C 104.373,24.1283 100.54,27.795 93,27.5C 83.1797,26.5638 79.8464,21.2305 83,11.5C 84.025,9.31305 85.525,7.64638 87.5,6.5 Z"/></g>
<g><path style="opacity:0.95" fill="#d24f49" d="M 120.5,-0.5 C 128.5,-0.5 136.5,-0.5 144.5,-0.5C 151.152,6.66505 157.319,14.3317 163,22.5C 163.499,17.1771 163.666,11.8437 163.5,6.5C 161.194,6.00745 158.861,5.67412 156.5,5.5C 156.5,3.5 156.5,1.5 156.5,-0.5C 163.833,-0.5 171.167,-0.5 178.5,-0.5C 179.341,1.3792 179.675,3.3792 179.5,5.5C 177.139,5.67412 174.806,6.00745 172.5,6.5C 172.5,15.5 172.5,24.5 172.5,33.5C 165.774,33.7951 159.108,33.4617 152.5,32.5C 147.14,25.6407 141.974,18.6407 137,11.5C 136.501,16.8229 136.334,22.1563 136.5,27.5C 138.5,27.5 140.5,27.5 142.5,27.5C 142.5,29.5 142.5,31.5 142.5,33.5C 135.167,33.5 127.833,33.5 120.5,33.5C 120.5,31.5 120.5,29.5 120.5,27.5C 122.5,27.5 124.5,27.5 126.5,27.5C 126.5,20.5 126.5,13.5 126.5,6.5C 124.5,6.16667 122.5,5.83333 120.5,5.5C 120.5,3.5 120.5,1.5 120.5,-0.5 Z"/></g>
<g><path style="opacity:0.938" fill="#d14f49" d="M 180.5,-0.5 C 192.167,-0.5 203.833,-0.5 215.5,-0.5C 233.164,1.82438 238.497,11.1577 231.5,27.5C 228.408,30.3793 224.741,32.2127 220.5,33C 206.837,33.4999 193.171,33.6666 179.5,33.5C 179.34,31.8008 179.506,30.1341 180,28.5C 182,27.8333 184,27.1667 186,26.5C 186.831,19.8085 186.664,13.1418 185.5,6.5C 183.929,5.69063 182.262,5.35729 180.5,5.5C 180.5,3.5 180.5,1.5 180.5,-0.5 Z M 200.5,7.5 C 214.442,3.66897 220.275,8.66897 218,22.5C 217.167,23.3333 216.333,24.1667 215.5,25C 210.599,26.3254 205.599,26.8254 200.5,26.5C 200.5,20.1667 200.5,13.8333 200.5,7.5 Z"/></g>
<g><path style="opacity:0.97" fill="#d14f49" d="M 241.5,-0.5 C 250.5,-0.5 259.5,-0.5 268.5,-0.5C 275.138,8.08665 281.305,17.0866 287,26.5C 289.041,27.4231 291.208,27.7564 293.5,27.5C 293.5,29.5 293.5,31.5 293.5,33.5C 283.833,33.5 274.167,33.5 264.5,33.5C 264.5,31.5 264.5,29.5 264.5,27.5C 266.604,27.7989 268.604,27.4656 270.5,26.5C 270.023,25.5224 269.357,24.6891 268.5,24C 262.167,23.3333 255.833,23.3333 249.5,24C 246.855,27.1641 247.855,28.3307 252.5,27.5C 252.5,29.5 252.5,31.5 252.5,33.5C 245.5,33.5 238.5,33.5 231.5,33.5C 231.5,31.5 231.5,29.5 231.5,27.5C 234.652,28.0414 237.152,27.0414 239,24.5C 242.626,18.7495 246.126,12.9162 249.5,7C 246.937,5.92074 244.271,5.42074 241.5,5.5C 241.5,3.5 241.5,1.5 241.5,-0.5 Z M 258.5,8.5 C 260.39,10.5901 262.057,12.9235 263.5,15.5C 260.216,16.657 256.882,16.8236 253.5,16C 255.389,13.6182 257.055,11.1182 258.5,8.5 Z"/></g>
<g><path style="opacity:1" fill="#20609e" d="M 299.5,41.5 C 299.5,42.5 299.5,43.5 299.5,44.5C 249.777,45.1285 199.777,45.7952 149.5,46.5C 99.2233,45.7952 49.2233,45.1285 -0.5,44.5C -0.5,43.5 -0.5,42.5 -0.5,41.5C 49.513,40.9526 99.513,39.9526 149.5,38.5C 199.487,39.9357 249.487,40.9357 299.5,41.5 Z"/></g>
<g><path style="opacity:1" fill="#1f609e" d="M 173.5,51.5 C 178.214,51.1734 182.88,51.5067 187.5,52.5C 183.174,56.6569 178.674,60.6569 174,64.5C 173.501,60.1794 173.334,55.8461 173.5,51.5 Z"/></g>
<g><path style="opacity:1" fill="#205f9c" d="M 60.5,83.5 C 55.8333,83.5 51.1667,83.5 46.5,83.5C 47.9969,76.4638 47.8303,69.4638 46,62.5C 43.3468,60.0593 40.1801,59.0593 36.5,59.5C 34.5,59.6667 32.5,59.8333 30.5,60C 33.5499,60.679 36.5499,61.5123 39.5,62.5C 40.497,69.4684 40.8303,76.4684 40.5,83.5C 36.8333,83.5 33.1667,83.5 29.5,83.5C 29.5,75.5 29.5,67.5 29.5,59.5C 27.1667,59.5 24.8333,59.5 22.5,59.5C 22.5,67.5 22.5,75.5 22.5,83.5C 17.8333,83.5 13.1667,83.5 8.5,83.5C 8.5,72.8333 8.5,62.1667 8.5,51.5C 20.8378,51.3335 33.1712,51.5001 45.5,52C 52.4627,52.0564 57.296,55.223 60,61.5C 60.4997,68.8258 60.6663,76.1591 60.5,83.5 Z"/></g>
<g><path style="opacity:1" fill="#205f9c" d="M 115.5,83.5 C 110.833,83.5 106.167,83.5 101.5,83.5C 101.5,80.8333 101.5,78.1667 101.5,75.5C 94.8333,75.5 88.1667,75.5 81.5,75.5C 81.5,72.8333 81.5,70.1667 81.5,67.5C 88.1667,67.5 94.8333,67.5 101.5,67.5C 101.854,64.0388 100.521,61.5388 97.5,60C 92.0788,59.1608 86.7455,59.4941 81.5,61C 79.2783,68.3886 78.9449,75.8886 80.5,83.5C 75.5,83.5 70.5,83.5 65.5,83.5C 64.989,74.9926 65.8224,66.6593 68,58.5C 69.9384,55.8941 72.4384,54.0608 75.5,53C 85.5059,51.0345 95.5059,51.0345 105.5,53C 110.605,54.6857 113.771,58.1857 115,63.5C 115.5,70.1583 115.666,76.825 115.5,83.5 Z"/></g>
<g><path style="opacity:1" fill="#205f9c" d="M 169.5,83.5 C 163.167,83.5 156.833,83.5 150.5,83.5C 146.41,77.9054 141.744,72.7387 136.5,68C 141.833,67.6667 147.167,67.3333 152.5,67C 155.167,64.6667 155.167,62.3333 152.5,60C 146.509,59.5005 140.509,59.3338 134.5,59.5C 134.5,67.5 134.5,75.5 134.5,83.5C 129.833,83.5 125.167,83.5 120.5,83.5C 120.5,72.8333 120.5,62.1667 120.5,51.5C 134.218,51.0939 147.885,51.5939 161.5,53C 168.414,56.7697 170.247,62.2697 167,69.5C 165.22,71.2929 163.387,72.9596 161.5,74.5C 164.189,77.5198 166.856,80.5198 169.5,83.5 Z"/></g>
<g><path style="opacity:1" fill="#205f9c" d="M 239.5,83.5 C 234.833,83.5 230.167,83.5 225.5,83.5C 225.891,76.0791 225.391,68.7458 224,61.5C 220.531,59.9971 216.864,59.3304 213,59.5C 210.5,59.6667 208,59.8333 205.5,60C 206.482,67.747 206.815,75.5803 206.5,83.5C 201.833,83.5 197.167,83.5 192.5,83.5C 192.5,72.8333 192.5,62.1667 192.5,51.5C 202.839,51.3335 213.172,51.5002 223.5,52C 231.512,52.0817 236.679,55.915 239,63.5C 239.5,70.1583 239.666,76.825 239.5,83.5 Z"/></g>
<g><path style="opacity:0.998" fill="#205f9c" d="M 290.5,83.5 C 275.167,83.5 259.833,83.5 244.5,83.5C 244.334,76.4921 244.5,69.4921 245,62.5C 245.516,59.9664 246.683,57.7998 248.5,56C 251.777,53.6845 255.444,52.3512 259.5,52C 269.828,51.5002 280.161,51.3335 290.5,51.5C 290.5,54.1667 290.5,56.8333 290.5,59.5C 280.395,59.0505 270.395,59.5505 260.5,61C 259.874,61.7504 259.374,62.5838 259,63.5C 258.501,67.8206 258.334,72.1539 258.5,76.5C 269.167,76.5 279.833,76.5 290.5,76.5C 290.5,78.8333 290.5,81.1667 290.5,83.5 Z"/></g>
<g><path style="opacity:1" fill="#205f9c" d="M 187.5,83.5 C 182.833,83.5 178.167,83.5 173.5,83.5C 173.334,78.1563 173.501,72.8229 174,67.5C 178.333,63.8333 182.667,60.1667 187,56.5C 187.5,65.4938 187.666,74.4938 187.5,83.5 Z"/></g>
<g><path style="opacity:1" fill="#20609d" d="M 260.5,64.5 C 269.5,64.5 278.5,64.5 287.5,64.5C 287.5,66.8333 287.5,69.1667 287.5,71.5C 278.5,71.5 269.5,71.5 260.5,71.5C 260.5,69.1667 260.5,66.8333 260.5,64.5 Z"/></g>
</svg>
