<svg id="Layer_1" data-name="Layer 1" xmlns="http://www.w3.org/2000/svg" viewBox="0 0 81.06 55.03"><defs><style>.cls-1{fill:#515252;}.cls-2{fill:#515150;}</style></defs><path class="cls-1" d="M22.42,6.5a5.55,5.55,0,0,1-3.59-3.59.26.26,0,0,0-.51,0,5.54,5.54,0,0,1-3.6,3.59.27.27,0,0,0,0,.51,5.54,5.54,0,0,1,3.6,3.59.26.26,0,0,0,.51,0A5.55,5.55,0,0,1,22.42,7,.26.26,0,0,0,22.42,6.5Z"/><path class="cls-1" d="M73.91,24.12a3.18,3.18,0,0,1-2.06-2.06.16.16,0,0,0-.3,0,3.18,3.18,0,0,1-2.06,2.06.15.15,0,0,0,0,.29,3.16,3.16,0,0,1,2.06,2.06.16.16,0,0,0,.3,0,3.16,3.16,0,0,1,2.06-2.06A.15.15,0,0,0,73.91,24.12Z"/><path class="cls-1" d="M7.65,24A3.16,3.16,0,0,1,5.59,22a.15.15,0,0,0-.29,0A3.18,3.18,0,0,1,3.24,24a.16.16,0,0,0,0,.3A3.18,3.18,0,0,1,5.3,26.37a.15.15,0,0,0,.29,0,3.16,3.16,0,0,1,2.06-2.06A.16.16,0,0,0,7.65,24Z"/><path class="cls-1" d="M78.35,16.86a2.43,2.43,0,0,1-1.59-1.59.12.12,0,0,0-.23,0A2.42,2.42,0,0,1,75,16.86a.12.12,0,0,0,0,.23,2.4,2.4,0,0,1,1.58,1.58.12.12,0,0,0,.23,0,2.42,2.42,0,0,1,1.59-1.58A.12.12,0,0,0,78.35,16.86Z"/><path class="cls-1" d="M67.37,7.25a2.74,2.74,0,1,1,2.74-2.73A2.73,2.73,0,0,1,67.37,7.25Zm0-4.47a1.74,1.74,0,1,0,1.74,1.74A1.74,1.74,0,0,0,67.37,2.78Z"/><path class="cls-1" d="M4.24,31.45a1.62,1.62,0,1,1,1.62-1.62A1.62,1.62,0,0,1,4.24,31.45Zm0-2.24a.62.62,0,1,0,.62.62A.61.61,0,0,0,4.24,29.21Z"/><path class="cls-1" d="M71.7,26.15a.51.51,0,0,1-.5-.5V22.88a.51.51,0,0,1,.5-.5.5.5,0,0,1,.5.5v2.77A.5.5,0,0,1,71.7,26.15Z"/><path class="cls-1" d="M73.08,24.76H70.32a.5.5,0,0,1-.5-.5.5.5,0,0,1,.5-.5h2.76a.5.5,0,0,1,.5.5A.5.5,0,0,1,73.08,24.76Z"/><path class="cls-1" d="M24,12.16a.5.5,0,0,1-.5-.5V8.9a.51.51,0,0,1,.5-.5.5.5,0,0,1,.5.5v2.76A.5.5,0,0,1,24,12.16Z"/><path class="cls-1" d="M25.38,10.78H22.61a.5.5,0,0,1-.5-.5.51.51,0,0,1,.5-.5h2.77a.51.51,0,0,1,.5.5A.5.5,0,0,1,25.38,10.78Z"/><path class="cls-2" d="M66.65,33.66a10.2,10.2,0,0,0-9.07,1L55.4,32.49a14,14,0,0,1,5.92-3.17l3.83-1a2.82,2.82,0,0,0,2.13-2.73V23.06A13.61,13.61,0,0,0,53.67,9.45H51.05a1.8,1.8,0,0,0-1.6.92,2,2,0,0,0,1.71,3.08,2.17,2.17,0,0,1,2.12,2.64L53,17.14H50.43a7.25,7.25,0,0,0-6.47,4H27.63l-.11-.51a4.42,4.42,0,0,0-2.59-3.12,4.26,4.26,0,0,0-1.73-.36H14.51a5.7,5.7,0,0,0-3.23,1,2,2,0,0,0-.62,2.51l1.09,2.38.26.47a9.8,9.8,0,0,0,7.74,4.93l9,11.11H23.49a10.15,10.15,0,0,0-13.07-5.9,9.66,9.66,0,0,0-5.89,6,10.12,10.12,0,1,0,19,7H44.37a5.06,5.06,0,0,0,2.41-.57A8.42,8.42,0,0,0,51,40.26a13.91,13.91,0,0,1,2.39-5.54l1.91,1.89a10.18,10.18,0,0,0-1.77,10.12,9.73,9.73,0,0,0,6.07,6,10.17,10.17,0,0,0,13-12.9A9.74,9.74,0,0,0,66.65,33.66ZM14,50.25a7.16,7.16,0,0,1-6.6-9.85,6.68,6.68,0,0,1,3.79-3.83,7.17,7.17,0,0,1,9.27,3.59,3.53,3.53,0,0,0,0,5.89A7.13,7.13,0,0,1,14,50.25Zm46.29-.5a6.75,6.75,0,0,1-3.93-4,7.17,7.17,0,0,1,1.06-7.08l3.71,3.65a1.48,1.48,0,0,0,1,.43,1.58,1.58,0,0,0,1.53-1.34,1.28,1.28,0,0,0-.39-1.14l-3.57-3.51a7.21,7.21,0,0,1,6-.25,6.74,6.74,0,0,1,3.86,3.95A7.16,7.16,0,0,1,60.33,49.75Z"/></svg>