<svg xmlns="http://www.w3.org/2000/svg" width="164.863" height="164.898" viewBox="0 0 164.863 164.898">
  <g id="concesionaria" transform="translate(-289 -5653.486)">
    <g id="Grupo_143" data-name="Grupo 143" transform="translate(58.901 180)">
      <g id="Grupo_116" data-name="Grupo 116" transform="translate(230.099 5473.486)">
        <path id="Trazado_113" data-name="Trazado 113" d="M1734.544-97.96h-63.865a50.549,50.549,0,0,0-50.5,50.5v63.9a50.528,50.528,0,0,0,50.5,50.5h63.865a50.551,50.551,0,0,0,50.5-50.5v-63.9A50.551,50.551,0,0,0,1734.544-97.96Zm44.368,114.4a44.4,44.4,0,0,1-44.368,44.368h-63.865a44.457,44.457,0,0,1-44.4-44.368v-63.9a44.457,44.457,0,0,1,44.4-44.368h63.865a44.4,44.4,0,0,1,44.368,44.368Z" transform="translate(-1620.18 97.96)" fill="#fff"/>
        <path id="Trazado_172" data-name="Trazado 172" d="M1774.585-51.812v63.9a44.4,44.4,0,0,1-44.368,44.368h-63.865a44.457,44.457,0,0,1-44.4-44.368v-63.9a44.457,44.457,0,0,1,44.4-44.368h63.865A44.4,44.4,0,0,1,1774.585-51.812Z" transform="translate(-1615.853 102.312)" fill="#b61b27"/>
      </g>
      <g id="Grupo_137" data-name="Grupo 137" transform="translate(276.867 5508.144)">
        <g id="Grupo_135" data-name="Grupo 135" transform="translate(0 43.758)">
          <path id="Trazado_176" data-name="Trazado 176" d="M1702.065-23.36h-65.294a3.011,3.011,0,0,1-3.014-3.014V-53.267A21.955,21.955,0,0,1,1655.686-75.2h27.464a21.955,21.955,0,0,1,21.929,21.929v26.893A3.011,3.011,0,0,1,1702.065-23.36Zm-62.28-6.028h59.267V-53.267a15.92,15.92,0,0,0-15.9-15.9h-27.464a15.92,15.92,0,0,0-15.9,15.9Z" transform="translate(-1633.757 75.196)" fill="#fff"/>
        </g>
        <g id="Grupo_136" data-name="Grupo 136" transform="translate(15.553)">
          <path id="Trazado_177" data-name="Trazado 177" d="M1658.379-47.686a20.132,20.132,0,0,1-20.106-20.107A20.129,20.129,0,0,1,1658.379-87.9a20.13,20.13,0,0,1,20.11,20.107A20.132,20.132,0,0,1,1658.379-47.686Zm0-34.185A14.1,14.1,0,0,0,1644.3-67.792a14.1,14.1,0,0,0,14.079,14.078,14.1,14.1,0,0,0,14.082-14.078A14.1,14.1,0,0,0,1658.379-81.871Z" transform="translate(-1638.272 87.899)" fill="#fff"/>
        </g>
        <path id="Trazado_178" data-name="Trazado 178" d="M1649.354-65.041l7.344-7.344c-1.843-1.381-6.865-1.888-7.344-1.932v0h-.038v0c-.479.045-5.5.551-7.344,1.932l7.344,7.344V-65l.017-.021.021.021Z" transform="translate(-1613.674 121.093)" fill="#fff"/>
        <path id="Trazado_179" data-name="Trazado 179" d="M1650.389-71.549l-2.1-.968-2.1.968-3.793,18.4,5.892,7.909,5.891-7.909Z" transform="translate(-1612.629 125.503)" fill="#fff"/>
      </g>
    </g>
  </g>
</svg>
