<svg xmlns="http://www.w3.org/2000/svg" width="164.898" height="164.898" viewBox="0 0 164.898 164.898">
  <g id="contactanos" transform="translate(-1380 -5653.486)">
    <g id="Grupo_141" data-name="Grupo 141" transform="translate(650.007 180)">
      <g id="Grupo_118" data-name="Grupo 118" transform="translate(729.993 5473.486)">
        <path id="Trazado_115" data-name="Trazado 115" d="M1879.7-97.96h-63.9a50.572,50.572,0,0,0-50.5,50.5v63.9a50.572,50.572,0,0,0,50.5,50.5h63.9a50.573,50.573,0,0,0,50.5-50.5v-63.9A50.573,50.573,0,0,0,1879.7-97.96Zm44.368,114.4A44.427,44.427,0,0,1,1879.7,60.806h-63.9a44.427,44.427,0,0,1-44.368-44.368v-63.9A44.427,44.427,0,0,1,1815.8-91.828h63.9a44.427,44.427,0,0,1,44.368,44.368Z" transform="translate(-1765.3 97.96)" fill="#fff"/>
        <path id="Trazado_173" data-name="Trazado 173" d="M1919.715-51.812v63.9a44.427,44.427,0,0,1-44.368,44.368h-63.9a44.427,44.427,0,0,1-44.368-44.368v-63.9a44.427,44.427,0,0,1,44.368-44.368h63.9A44.427,44.427,0,0,1,1919.715-51.812Z" transform="translate(-1760.949 102.312)" fill="#b61b27"/>
      </g>
      <g id="Grupo_134" data-name="Grupo 134" transform="translate(774.151 5519.928)">
        <g id="Grupo_133" data-name="Grupo 133">
          <g id="Grupo_132" data-name="Grupo 132">
            <path id="Trazado_175" data-name="Trazado 175" d="M1791.959-12.453a3.023,3.023,0,0,1-1.182-.241,3.015,3.015,0,0,1-1.833-2.773V-27.906h-7.812a3.015,3.015,0,0,1-3.014-3.014V-81.464a3.015,3.015,0,0,1,3.014-3.014h70.544a3.015,3.015,0,0,1,3.014,3.014v50.5a3.013,3.013,0,0,1-3.014,3.014l-15.48,0q-13.28.01-26.538-.031h-.021a1.117,1.117,0,0,0-1.054.4c-4.358,4.461-14.12,13.875-14.533,14.275A3,3,0,0,1,1791.959-12.453Zm-7.812-21.481h7.812a3.013,3.013,0,0,1,3.014,3.014v8.333c3.155-3.073,7.027-6.869,9.3-9.194A7.239,7.239,0,0,1,1809.686-34q13.254.062,26.507.031l12.47,0V-78.45h-64.516Z" transform="translate(-1778.119 84.478)" fill="#fff"/>
          </g>
        </g>
      </g>
    </g>
  </g>
</svg>
