<?xml version="1.0" encoding="utf-8"?>
<svg width="152px" height="24px" viewBox="0 0 152 24" version="1.1" xmlns="http://www.w3.org/2000/svg">
  <title>logo-honda-white</title>
  <desc>Created with Sketch.</desc>
  <g id="Page-1" stroke="none" stroke-width="1" fill="none" fill-rule="evenodd">
    <g id="logo-honda-white" fill="#FFFFFF">
      <path d="M 89.623 15.559 L 89.104 15.559 L 85.135 15.559 L 85.135 7.692 L 89.623 7.692 C 91.553 7.692 93.108 8.632 93.069 11.717 C 93.036 14.406 92.107 15.559 89.623 15.559 M 99.129 11.811 C 99.129 10.695 98.942 9.764 98.621 8.993 C 97.288 5.777 93.703 5.204 91.922 5.134 L 89.104 5.134 L 77.534 5.134 L 77.534 6.858 C 78.384 6.854 79.978 6.927 79.983 7.692 L 79.983 15.559 C 79.549 16.157 78.29 16.348 77.382 16.348 L 77.382 18.116 L 91.922 18.116 C 93.757 18.194 97.298 17.046 98.621 14.266 C 98.957 13.556 99.15 12.739 99.129 11.811" id="Fill-6"/>
      <path d="M 109.146 11.794 L 106.571 11.794 L 109.089 7.694 L 109.146 7.784 L 111.72 11.794 L 109.146 11.794 Z M 120.214 15.557 L 113.965 5.842 C 113.698 5.455 113.376 5.214 112.997 5.134 L 109.146 5.134 L 102.493 5.134 L 102.493 6.859 C 103.626 6.881 106.224 6.942 105.286 8.334 L 100.78 15.557 C 100.358 16.085 99.442 16.277 98.621 16.327 C 98.442 16.337 98.272 16.349 98.104 16.349 L 98.104 18.117 L 98.621 18.117 L 106.607 18.104 L 106.607 16.349 C 105.725 16.344 103.639 16.297 104.631 14.877 L 105.174 14.064 L 113.167 14.064 L 113.755 14.951 C 114.674 16.349 112.406 16.349 111.603 16.349 L 111.603 18.117 L 122.978 18.117 L 122.978 16.349 C 122.07 16.349 120.784 16.349 120.214 15.557 Z" id="Fill-7"/>
      <path d="M 41.9 16.131 L 41.898 16.131 C 37.998 16.131 37.15 14.063 37.15 11.642 C 37.15 9.216 37.693 7.15 41.898 7.15 L 41.9 7.15 C 46.109 7.15 46.65 9.216 46.65 11.642 C 46.65 14.063 45.8 16.131 41.9 16.131 M 41.9 4.59 L 41.898 4.59 C 34.388 4.59 30.988 7.695 30.988 11.447 C 30.988 15.468 34.153 18.577 41.898 18.577 L 41.9 18.577 C 49.65 18.577 52.808 15.468 52.808 11.447 C 52.808 7.695 49.413 4.59 41.9 4.59" id="Fill-8"/>
      <path d="M 68.109 6.858 C 69.023 6.854 70.742 6.908 70.748 7.694 L 70.748 14.722 L 63.755 5.58 C 63.6 5.319 63.352 5.171 63.015 5.134 L 53.249 5.134 L 53.249 6.858 C 54.154 6.873 55.913 6.942 55.919 7.694 L 55.919 15.558 C 55.913 16.015 54.113 16.349 53.249 16.349 L 53.249 18.117 L 61.838 18.117 L 61.838 16.349 C 60.843 16.349 59.166 16.142 59.16 15.558 L 59.16 8.605 L 65.946 17.385 C 66.267 17.821 66.685 18.072 67.232 18.104 L 73.896 18.104 L 73.896 7.68 C 73.905 7.061 75.499 6.858 76.528 6.858 L 76.528 5.134 L 68.109 5.134 L 68.109 6.858 Z" id="Fill-9"/>
      <path d="M 19.884 6.858 C 20.787 6.858 22.598 6.858 22.59 7.694 L 22.59 10.368 L 14.373 10.368 L 14.373 7.694 C 14.362 6.858 16.201 6.858 17.077 6.858 L 17.077 5.134 L 6.66 5.134 L 6.66 6.896 C 7.441 6.858 9.148 6.858 9.193 7.694 L 9.193 15.558 C 9.212 16.357 7.48 16.357 6.66 16.357 L 6.66 18.116 L 17.077 18.117 L 17.077 16.357 C 16.298 16.357 14.362 16.357 14.373 15.558 L 14.373 13.009 L 22.59 13.009 L 22.59 15.558 C 22.598 16.357 20.808 16.357 19.884 16.357 L 19.884 18.116 L 30.506 18.117 L 30.506 16.357 C 29.72 16.357 27.927 16.357 27.927 15.558 L 27.927 7.694 C 27.927 6.858 29.74 6.823 30.506 6.858 L 30.506 5.134 L 19.884 5.134 L 19.884 6.858 Z" id="Fill-10"/>
    </g>
  </g>
</svg>