<?xml version="1.0" encoding="UTF-8"?>
<svg width="101px" height="18px" viewBox="0 0 101 18" version="1.1" xmlns="http://www.w3.org/2000/svg" xmlns:xlink="http://www.w3.org/1999/xlink">
    <!-- Generator: Sketch 49.3 (51167) - http://www.bohemiancoding.com/sketch -->
    <title>logo-diesa</title>
    <desc>Created with Sketch.</desc>
    <defs></defs>
    <g id="Page-1" stroke="none" stroke-width="1" fill="none" fill-rule="evenodd">
        <path d="M7.1873,12.974 L9.1155,12.974 C10.9032,12.974 12.1432,12.6788 12.8394,12.0758 C13.5277,11.4695 13.8755,10.3974 13.8755,8.845 C13.8755,7.3372 13.5264,6.2644 12.8148,5.6315 C12.1092,5.0051 10.9032,4.6873 9.2041,4.6873 L7.1873,4.6873 L7.1873,12.974 Z M0,17.2229 L0,0.4397 L8.6871,0.4397 C10.8945,0.4397 12.5383,0.5143 13.615,0.6609 C14.6951,0.8102 15.6359,1.0547 16.4314,1.3992 C17.9852,2.0821 19.1452,3.0469 19.9301,4.2796 C20.7077,5.5162 21.0948,7.04 21.0948,8.845 C21.0948,10.7512 20.6131,12.343 19.6416,13.6383 C18.6808,14.9349 17.2523,15.893 15.37,16.5273 C14.6451,16.7778 13.7263,16.9597 12.6315,17.0617 C11.5308,17.1663 9.7738,17.2229 7.3532,17.2229 L0,17.2229 Z M24.5242,0.4397 L31.8347,0.4397 L31.8347,17.2229 L24.5242,17.2229 L24.5242,0.4397 Z M36.2223,17.2229 L36.2223,0.4397 L54.1108,0.4397 L54.1108,4.4535 L43.4089,4.4535 L43.4089,6.6942 L52.4551,6.6942 L52.4551,10.5494 L43.4089,10.5494 L43.4089,13.1392 L54.5539,13.1392 L54.5539,17.2229 L36.2223,17.2229 Z M56.8466,11.9972 L63.85,11.9972 C64.0426,12.5982 64.3924,13.0366 64.8974,13.3025 C65.4025,13.565 66.1607,13.7016 67.1615,13.7016 C67.997,13.7016 68.6593,13.5896 69.1357,13.3744 C69.6194,13.1572 69.8566,12.8641 69.8566,12.4816 C69.8566,11.8706 68.8492,11.3822 66.8363,11.0031 C66.4359,10.9298 66.1227,10.8705 65.9102,10.8319 C64.2631,10.514 62.9459,10.2202 61.9711,9.959 C60.989,9.6985 60.2827,9.4506 59.8376,9.2254 C58.9774,8.761 58.3258,8.204 57.898,7.5584 C57.4663,6.9147 57.2544,6.1738 57.2544,5.3456 C57.2544,3.6826 58.0893,2.3726 59.759,1.4232 C61.4267,0.471 63.7254,0 66.6538,0 C69.5288,0 71.7949,0.4537 73.4426,1.3652 C75.0924,2.2734 76.0238,3.5746 76.239,5.2723 L69.4249,5.2723 C69.3149,4.7793 69.0178,4.4088 68.5527,4.169 C68.0763,3.9244 67.4027,3.8025 66.5318,3.8025 C65.7616,3.8025 65.1939,3.8951 64.8155,4.087 C64.4417,4.2756 64.2538,4.5667 64.2538,4.9518 C64.2538,5.5075 65.2352,5.9719 67.1995,6.3391 C67.3787,6.3797 67.508,6.407 67.5959,6.4263 C67.8818,6.4763 68.3108,6.5549 68.8912,6.6589 C71.4957,7.1566 73.1988,7.6037 74.0016,8.0068 C74.9924,8.4992 75.7187,9.0609 76.1777,9.6918 C76.6322,10.3228 76.86,11.0697 76.86,11.9246 C76.86,13.7795 75.9939,15.2047 74.2615,16.1948 C72.5391,17.1916 70.0659,17.69 66.8363,17.69 C63.866,17.69 61.5107,17.1916 59.7723,16.1948 C58.038,15.2047 57.0619,13.8055 56.8466,11.9972 Z M87.1249,11.4768 L91.6344,11.4768 L89.4043,5.6654 L87.1249,11.4768 Z M77.8835,17.2229 L85.7557,0.4397 L93.0362,0.4397 L100.912,17.2229 L93.7858,17.2229 L92.943,15.0075 L85.8137,15.0075 L84.9515,17.2229 L77.8835,17.2229 Z" id="logo-diesa" fill="#FFFFFF"></path>
    </g>
</svg>