<?xml version="1.0" encoding="UTF-8"?>
<!DOCTYPE svg PUBLIC "-//W3C//DTD SVG 1.1//EN" "http://www.w3.org/Graphics/SVG/1.1/DTD/svg11.dtd">
<svg xmlns="http://www.w3.org/2000/svg" version="1.1" width="300px" height="75px" style="shape-rendering:geometricPrecision; text-rendering:geometricPrecision; image-rendering:optimizeQuality; fill-rule:evenodd; clip-rule:evenodd" xmlns:xlink="http://www.w3.org/1999/xlink">
<g><path style="opacity:1" fill="#cccccc" d="M -0.5,-0.5 C 99.5,-0.5 199.5,-0.5 299.5,-0.5C 299.5,24.5 299.5,49.5 299.5,74.5C 199.5,74.5 99.5,74.5 -0.5,74.5C -0.5,49.5 -0.5,24.5 -0.5,-0.5 Z"/></g>
<g><path style="opacity:1" fill="#fdfcfc" d="M 0.5,0.5 C 99.8333,0.5 199.167,0.5 298.5,0.5C 298.5,24.8333 298.5,49.1667 298.5,73.5C 199.167,73.5 99.8333,73.5 0.5,73.5C 0.5,49.1667 0.5,24.8333 0.5,0.5 Z"/></g>
<g><path style="opacity:1" fill="#151515" d="M 229.5,55.5 C 230.5,55.5 231.5,55.5 232.5,55.5C 233.071,58.4769 234.071,61.3103 235.5,64C 235,64.1667 234.5,64.3333 234,64.5C 231.389,63.676 228.889,63.3426 226.5,63.5C 227.508,60.8048 228.508,58.1381 229.5,55.5 Z"/></g>
<g><path style="opacity:1" fill="#ababab" d="M 230.5,58.5 C 231.776,59.3864 231.776,60.3864 230.5,61.5C 229.438,60.5754 229.438,59.5754 230.5,58.5 Z"/></g>
<g><path style="opacity:1" fill="#0e0e0e" d="M 217.5,55.5 C 220.247,55.1866 222.914,55.52 225.5,56.5C 224.167,58.1667 222.833,59.8333 221.5,61.5C 222.833,62.1667 224.167,62.8333 225.5,63.5C 222.914,64.48 220.247,64.8134 217.5,64.5C 217.744,61.7374 219.077,59.5707 221.5,58C 219.563,57.8784 218.23,57.045 217.5,55.5 Z"/></g>
<g><path style="opacity:1" fill="#111111" d="M 208.5,55.5 C 211.119,55.2317 213.619,55.565 216,56.5C 215.194,59.171 215.361,61.8377 216.5,64.5C 215.5,64.5 214.5,64.5 213.5,64.5C 213.5,63.5 213.5,62.5 213.5,61.5C 212.5,61.5 211.5,61.5 210.5,61.5C 210.719,62.675 210.386,63.675 209.5,64.5C 208.516,61.5719 208.183,58.5719 208.5,55.5 Z"/></g>
<g><path style="opacity:1" fill="#e5e5e5" d="M 210.5,57.5 C 211.675,57.281 212.675,57.6143 213.5,58.5C 211.948,59.7979 210.948,59.4646 210.5,57.5 Z"/></g>
<g><path style="opacity:1" fill="#080808" d="M 198.5,55.5 C 201.247,55.1866 203.914,55.52 206.5,56.5C 204.833,57.1667 203.167,57.8333 201.5,58.5C 202.729,59.2811 204.062,59.7811 205.5,60C 204.062,60.2189 202.729,60.7189 201.5,61.5C 203.167,62.1667 204.833,62.8333 206.5,63.5C 203.914,64.48 201.247,64.8134 198.5,64.5C 198.5,61.5 198.5,58.5 198.5,55.5 Z"/></g>
<g><path style="opacity:1" fill="#141414" d="M 188.5,55.5 C 189.5,55.5 190.5,55.5 191.5,55.5C 191.5,57.8333 191.5,60.1667 191.5,62.5C 192.5,62.5 193.5,62.5 194.5,62.5C 194.192,60.076 194.526,57.7427 195.5,55.5C 196.652,58.1062 196.818,60.7728 196,63.5C 189.471,65.1346 186.971,62.4679 188.5,55.5 Z"/></g>
<g><path style="opacity:1" fill="#020202" d="M 180.5,55.5 C 182.924,55.1924 185.257,55.5258 187.5,56.5C 185.833,57.1667 184.167,57.8333 182.5,58.5C 187.682,59.776 187.682,60.4427 182.5,60.5C 182.762,61.9778 182.429,63.3112 181.5,64.5C 180.516,61.5719 180.183,58.5719 180.5,55.5 Z"/></g>
<g><path style="opacity:1" fill="#050505" d="M 166.5,55.5 C 168.924,55.1924 171.257,55.5258 173.5,56.5C 166.922,57.948 166.922,59.1146 173.5,60C 171.744,60.2022 170.078,60.7022 168.5,61.5C 170.5,62.1667 172.5,62.8333 174.5,63.5C 171.914,64.48 169.247,64.8134 166.5,64.5C 166.5,61.5 166.5,58.5 166.5,55.5 Z"/></g>
<g><path style="opacity:1" fill="#040404" d="M 156.5,55.5 C 163.997,54.8038 165.997,57.6372 162.5,64C 160.527,64.4955 158.527,64.6621 156.5,64.5C 156.5,61.5 156.5,58.5 156.5,55.5 Z"/></g>
<g><path style="opacity:1" fill="#e0e0e0" d="M 158.5,57.5 C 162.161,57.3501 163.161,58.8501 161.5,62C 160.552,62.4828 159.552,62.6495 158.5,62.5C 158.5,60.8333 158.5,59.1667 158.5,57.5 Z"/></g>
<g><path style="opacity:1" fill="#121212" d="M 143.5,55.5 C 145.604,55.2011 147.604,55.5344 149.5,56.5C 148.167,56.8333 146.833,57.1667 145.5,57.5C 146.655,58.9505 148.155,59.9505 150,60.5C 150.684,61.7839 150.517,62.9505 149.5,64C 147.231,64.7581 145.064,64.5914 143,63.5C 142.312,62.6683 142.479,62.0016 143.5,61.5C 145.093,63.6603 146.76,63.827 148.5,62C 147.109,60.98 145.609,60.1466 144,59.5C 143.51,58.2068 143.343,56.8734 143.5,55.5 Z"/></g>
<g><path style="opacity:1" fill="#141414" d="M 134.5,55.5 C 141.444,55.2723 143.11,58.1056 139.5,64C 132.416,64.475 130.749,61.6417 134.5,55.5 Z"/></g>
<g><path style="opacity:1" fill="#eaeaea" d="M 135.5,57.5 C 136.5,57.5 137.5,57.5 138.5,57.5C 138.5,59.1667 138.5,60.8333 138.5,62.5C 134.716,62.4747 133.716,60.8081 135.5,57.5 Z"/></g>
<g><path style="opacity:1" fill="#151515" d="M 123.5,55.5 C 125.924,55.1924 128.257,55.5258 130.5,56.5C 128.777,58.8676 128.11,61.5342 128.5,64.5C 127.5,64.5 126.5,64.5 125.5,64.5C 125.71,61.248 125.044,58.248 123.5,55.5 Z"/></g>
<g><path style="opacity:1" fill="#0c0c0c" d="M 115.5,55.5 C 117.467,55.2606 119.301,55.5939 121,56.5C 121.688,57.3317 121.521,57.9984 120.5,58.5C 118.13,56.9019 116.464,57.4019 115.5,60C 116.464,62.5981 118.13,63.0981 120.5,61.5C 121.711,62.2739 121.711,63.1072 120.5,64C 113.416,64.475 111.749,61.6417 115.5,55.5 Z"/></g>
<g><path style="opacity:1" fill="#171717" d="M 103.5,55.5 C 104.5,55.5 105.5,55.5 106.5,55.5C 106.5,57.8333 106.5,60.1667 106.5,62.5C 107.5,62.5 108.5,62.5 109.5,62.5C 109.192,60.076 109.526,57.7427 110.5,55.5C 111.652,58.1062 111.818,60.7728 111,63.5C 108.358,65.0586 106.025,64.7253 104,62.5C 103.503,60.1902 103.337,57.8568 103.5,55.5 Z"/></g>
<g><path style="opacity:1" fill="#040404" d="M 93.5,55.5 C 100.997,54.8038 102.997,57.6372 99.5,64C 97.5273,64.4955 95.5273,64.6621 93.5,64.5C 93.5,61.5 93.5,58.5 93.5,55.5 Z"/></g>
<g><path style="opacity:1" fill="#dbdbdb" d="M 95.5,57.5 C 99.1612,57.3501 100.161,58.8501 98.5,62C 97.552,62.4828 96.552,62.6495 95.5,62.5C 95.5,60.8333 95.5,59.1667 95.5,57.5 Z"/></g>
<g><path style="opacity:1" fill="#0f0f0f" d="M 84.5,55.5 C 91.4863,55.331 93.153,58.1643 89.5,64C 82.4159,64.475 80.7492,61.6417 84.5,55.5 Z"/></g>
<g><path style="opacity:1" fill="#dadada" d="M 85.5,57.5 C 89.1612,57.3501 90.1612,58.8501 88.5,62C 84.7071,62.4866 83.7071,60.9866 85.5,57.5 Z"/></g>
<g><path style="opacity:1" fill="#1a1a1a" d="M 72.5,55.5 C 75.1667,55.5 77.8333,55.5 80.5,55.5C 80.2229,58.4475 80.5562,61.2809 81.5,64C 80.552,64.4828 79.552,64.6495 78.5,64.5C 78.5,63.5 78.5,62.5 78.5,61.5C 77.5,61.5 76.5,61.5 75.5,61.5C 75.5,62.5 75.5,63.5 75.5,64.5C 74.5,64.5 73.5,64.5 72.5,64.5C 72.5,61.5 72.5,58.5 72.5,55.5 Z"/></g>
<g><path style="opacity:1" fill="#e5e5e5" d="M 75.5,57.5 C 76.675,57.281 77.675,57.6143 78.5,58.5C 76.9483,59.7979 75.9483,59.4646 75.5,57.5 Z"/></g>
<g><path style="opacity:1" fill="#171717" d="M 63.5,55.5 C 66.1194,55.2317 68.6194,55.565 71,56.5C 72.1772,60.4918 70.6772,62.1584 66.5,61.5C 66.5,62.5 66.5,63.5 66.5,64.5C 65.5,64.5 64.5,64.5 63.5,64.5C 63.5,61.5 63.5,58.5 63.5,55.5 Z"/></g>
<g><path style="opacity:1" fill="#dbdbdb" d="M 66.5,57.5 C 67.675,57.281 68.675,57.6143 69.5,58.5C 67.9483,59.7979 66.9483,59.4646 66.5,57.5 Z"/></g>
<g><path style="opacity:1" fill="#ff5e5d" d="M 223.5,31.5 C 224.404,32.209 224.737,33.209 224.5,34.5C 219.305,34.8205 214.305,34.4872 209.5,33.5C 214.619,34.1031 219.285,33.4364 223.5,31.5 Z"/></g>
<g><path style="opacity:1" fill="#ff7b7b" d="M 172.5,31.5 C 181.105,33.4711 190.105,34.1377 199.5,33.5C 190.348,34.4936 181.015,34.8269 171.5,34.5C 171.263,33.209 171.596,32.209 172.5,31.5 Z"/></g>
<g><path style="opacity:1" fill="#ff5b5a" d="M 129.5,31.5 C 133.715,33.4364 138.381,34.1031 143.5,33.5C 138.695,34.4872 133.695,34.8205 128.5,34.5C 128.263,33.209 128.596,32.209 129.5,31.5 Z"/></g>
<g><path style="opacity:1" fill="#ff5f5d" d="M 87.5,31.5 C 88.404,32.209 88.7373,33.209 88.5,34.5C 81.9779,34.8235 75.6446,34.4902 69.5,33.5C 75.9262,34.12 81.9262,33.4533 87.5,31.5 Z"/></g>
<g><path style="opacity:1" fill="#ff4a49" d="M 165.5,16.5 C 165.5,22.5 165.5,28.5 165.5,34.5C 160.968,34.8182 156.634,34.4849 152.5,33.5C 156.5,33.5 160.5,33.5 164.5,33.5C 164.178,27.642 164.511,21.9753 165.5,16.5 Z"/></g>
<g><path style="opacity:1" fill="#ff1911" d="M 223.5,31.5 C 219.285,33.4364 214.619,34.1031 209.5,33.5C 210.474,31.9147 211.974,30.9147 214,30.5C 216.635,25.7017 219.468,21.0351 222.5,16.5C 221.332,14.7826 219.665,14.1159 217.5,14.5C 217.5,13.5 217.5,12.5 217.5,11.5C 223.842,11.3338 230.175,11.5005 236.5,12C 240.333,17.8333 244.167,23.6667 248,29.5C 249.444,31.1554 251.278,31.822 253.5,31.5C 253.5,32.5 253.5,33.5 253.5,34.5C 246.833,34.5 240.167,34.5 233.5,34.5C 233.5,33.5 233.5,32.5 233.5,31.5C 234.833,31.5 236.167,31.5 237.5,31.5C 237.67,30.1779 237.337,29.0113 236.5,28C 231.5,27.3333 226.5,27.3333 221.5,28C 220.663,29.0113 220.33,30.1779 220.5,31.5C 221.5,31.5 222.5,31.5 223.5,31.5 Z"/></g>
<g><path style="opacity:1" fill="#ffebeb" d="M 228.5,16.5 C 236.033,23.294 234.7,25.294 224.5,22.5C 225.844,20.4714 227.177,18.4714 228.5,16.5 Z"/></g>
<g><path style="opacity:1" fill="#ff190f" d="M 199.5,33.5 C 190.105,34.1377 181.105,33.4711 172.5,31.5C 173.822,31.67 174.989,31.3366 176,30.5C 176.667,25.5 176.667,20.5 176,15.5C 174.989,14.6634 173.822,14.33 172.5,14.5C 172.5,13.5 172.5,12.5 172.5,11.5C 181.506,11.3336 190.506,11.5002 199.5,12C 208.452,12.9453 211.952,17.7787 210,26.5C 207.982,31.0128 204.482,33.3461 199.5,33.5 Z"/></g>
<g><path style="opacity:1" fill="#fff9f9" d="M 196.5,16.5 C 199.436,17.5153 200.769,19.682 200.5,23C 200.825,26.8988 199.158,29.0655 195.5,29.5C 192.5,29.5 189.5,29.5 186.5,29.5C 186.5,25.1667 186.5,20.8333 186.5,16.5C 189.833,16.5 193.167,16.5 196.5,16.5 Z"/></g>
<g><path style="opacity:1" fill="#ffbaba" d="M 196.5,16.5 C 193.167,16.5 189.833,16.5 186.5,16.5C 186.5,20.8333 186.5,25.1667 186.5,29.5C 189.5,29.5 192.5,29.5 195.5,29.5C 192.375,30.4794 189.042,30.8128 185.5,30.5C 185.5,25.5 185.5,20.5 185.5,15.5C 189.371,15.185 193.038,15.5184 196.5,16.5 Z"/></g>
<g><path style="opacity:1" fill="#ff0e08" d="M 158.5,27.5 C 158.56,28.0431 158.893,28.3764 159.5,28.5C 160.809,24.3507 160.809,20.3507 159.5,16.5C 157.959,15.3332 156.625,13.9999 155.5,12.5C 160.619,11.8969 165.285,12.5636 169.5,14.5C 167.62,14.2291 166.287,14.8958 165.5,16.5C 164.511,21.9753 164.178,27.642 164.5,33.5C 160.5,33.5 156.5,33.5 152.5,33.5C 148.126,29.1278 144.126,24.4611 140.5,19.5C 140.217,18.7109 139.717,18.0442 139,17.5C 138.186,22.0204 138.353,26.3537 139.5,30.5C 141.219,31.0221 142.552,32.0221 143.5,33.5C 138.381,34.1031 133.715,33.4364 129.5,31.5C 130.822,31.67 131.989,31.3366 133,30.5C 133.667,25.5 133.667,20.5 133,15.5C 131.644,14.6198 130.144,14.2865 128.5,14.5C 128.5,13.5 128.5,12.5 128.5,11.5C 134.509,11.3338 140.509,11.5005 146.5,12C 150.63,17.1064 154.63,22.2731 158.5,27.5 Z"/></g>
<g><path style="opacity:1" fill="#ffa6a6" d="M 140.5,19.5 C 139.518,22.9619 139.185,26.6286 139.5,30.5C 138.353,26.3537 138.186,22.0204 139,17.5C 139.717,18.0442 140.217,18.7109 140.5,19.5 Z"/></g>
<g><path style="opacity:1" fill="#ff7474" d="M 159.5,16.5 C 160.809,20.3507 160.809,24.3507 159.5,28.5C 158.893,28.3764 158.56,28.0431 158.5,27.5C 159.482,24.0381 159.815,20.3714 159.5,16.5 Z"/></g>
<g><path style="opacity:1" fill="#ff0b06" d="M 45.5,12.5 C 51.9262,11.88 57.9262,12.5467 63.5,14.5C 59.9319,14.7593 58.5985,16.7593 59.5,20.5C 64.3054,21.4872 69.3054,21.8205 74.5,21.5C 74.7947,19.2646 74.4614,17.2646 73.5,15.5C 71.7809,14.9779 70.4475,13.9779 69.5,12.5C 75.9262,11.88 81.9262,12.5467 87.5,14.5C 86.1779,14.33 85.0113,14.6634 84,15.5C 83.3333,20.5 83.3333,25.5 84,30.5C 85.0113,31.3366 86.1779,31.67 87.5,31.5C 81.9262,33.4533 75.9262,34.12 69.5,33.5C 70.4475,32.0221 71.7809,31.0221 73.5,30.5C 74.4614,28.7354 74.7947,26.7354 74.5,24.5C 69.3054,24.1795 64.3054,24.5128 59.5,25.5C 58.5985,29.2407 59.9319,31.2407 63.5,31.5C 63.5,32.5 63.5,33.5 63.5,34.5C 57.5,34.5 51.5,34.5 45.5,34.5C 45.5,33.5 45.5,32.5 45.5,31.5C 47.1439,31.7135 48.6439,31.3802 50,30.5C 50.6667,25.5 50.6667,20.5 50,15.5C 47.9737,15.0853 46.4737,14.0853 45.5,12.5 Z"/></g>
<g><path style="opacity:1" fill="#ff8280" d="M 59.5,25.5 C 64.3054,24.5128 69.3054,24.1795 74.5,24.5C 74.7947,26.7354 74.4614,28.7354 73.5,30.5C 73.5,28.8333 73.5,27.1667 73.5,25.5C 68.8333,25.5 64.1667,25.5 59.5,25.5 Z"/></g>
<g><path style="opacity:1" fill="#ff8280" d="M 73.5,15.5 C 74.4614,17.2646 74.7947,19.2646 74.5,21.5C 69.3054,21.8205 64.3054,21.4872 59.5,20.5C 64.1667,20.5 68.8333,20.5 73.5,20.5C 73.5,18.8333 73.5,17.1667 73.5,15.5 Z"/></g>
<g><path style="opacity:1" fill="#ff615f" d="M 155.5,12.5 C 160.305,11.5128 165.305,11.1795 170.5,11.5C 170.737,12.791 170.404,13.791 169.5,14.5C 165.285,12.5636 160.619,11.8969 155.5,12.5 Z"/></g>
<g><path style="opacity:1" fill="#ff1008" d="M 98.5,11.5 C 104.509,11.3338 110.509,11.5005 116.5,12C 128.561,15.7269 130.561,22.3935 122.5,32C 114.691,34.435 106.691,35.1017 98.5,34C 89.1232,29.9373 87.1232,23.604 92.5,15C 94.7274,14.059 96.7274,12.8923 98.5,11.5 Z"/></g>
<g><path style="opacity:1" fill="#fff1f0" d="M 105.5,14.5 C 115.049,13.8857 118.549,18.219 116,27.5C 112.22,31.7148 107.72,32.5481 102.5,30C 99.7352,27.0052 98.9019,23.5052 100,19.5C 101.107,16.887 102.94,15.2203 105.5,14.5 Z"/></g>
<g><path style="opacity:1" fill="#ff5f5d" d="M 69.5,12.5 C 75.6446,11.5098 81.9779,11.1765 88.5,11.5C 88.7373,12.791 88.404,13.791 87.5,14.5C 81.9262,12.5467 75.9262,11.88 69.5,12.5 Z"/></g>
<g><path style="opacity:1" fill="#ff5f5d" d="M 45.5,12.5 C 51.6446,11.5098 57.9779,11.1765 64.5,11.5C 64.7373,12.791 64.404,13.791 63.5,14.5C 57.9262,12.5467 51.9262,11.88 45.5,12.5 Z"/></g>
</svg>
