<svg id="Layer_1" data-name="Layer 1" xmlns="http://www.w3.org/2000/svg" viewBox="0 0 77.02 63.19"><defs><style>.cls-1{fill:#515252;}.cls-2{fill:#515150;}</style></defs><path class="cls-1" d="M47.15,5a.86.86,0,0,0-.94.19L42.76,8.62a.87.87,0,0,0,.61,1.48h3.45a.87.87,0,0,0,.86-.87V5.79A.87.87,0,0,0,47.15,5Z"/><path class="cls-1" d="M31.31,17H27.87a.85.85,0,0,0-.86.86v3.44a.86.86,0,0,0,.53.8.92.92,0,0,0,.33.06.85.85,0,0,0,.61-.25l3.44-3.44A.86.86,0,0,0,31.31,17Z"/><path class="cls-1" d="M27.87,13.16h-.11a.86.86,0,0,1-.75-1,10.41,10.41,0,0,1,10.34-9A11.27,11.27,0,0,1,45.72,7a.87.87,0,0,1-.07,1.22.88.88,0,0,1-1.22-.08,9.51,9.51,0,0,0-7.08-3.17,8.68,8.68,0,0,0-8.63,7.48.86.86,0,0,1-.85.75Z"/><path class="cls-1" d="M37.34,23.88A11.34,11.34,0,0,1,29,20.12.86.86,0,0,1,30.25,19a9.58,9.58,0,0,0,7.09,3.17A8.66,8.66,0,0,0,46,14.67a.86.86,0,0,1,1.71.22,10.41,10.41,0,0,1-10.34,9Z"/><path class="cls-2" d="M66.62,40.4a10.2,10.2,0,0,0-9.07,1l-2.17-2.14a14.07,14.07,0,0,1,5.91-3.17l3.84-1a2.83,2.83,0,0,0,2.12-2.74V29.79a13.61,13.61,0,0,0-13.6-13.61H51a1.82,1.82,0,0,0-1.6.92,2,2,0,0,0,1.72,3.08,2.16,2.16,0,0,1,2.11,2.64L53,23.88H50.41a7.25,7.25,0,0,0-6.48,4H27.61l-.12-.52a4.41,4.41,0,0,0-2.58-3.12,4.49,4.49,0,0,0-1.73-.35H14.49a5.6,5.6,0,0,0-3.23,1,2,2,0,0,0-.62,2.5l1.09,2.39.26.46a9.76,9.76,0,0,0,7.74,4.93l9,11.12H23.47A10.16,10.16,0,0,0,10.4,40.39a9.66,9.66,0,0,0-5.89,6,10.12,10.12,0,1,0,19,7H44.34a5,5,0,0,0,2.41-.57A8.39,8.39,0,0,0,51,47a14.22,14.22,0,0,1,2.39-5.53l1.92,1.88a10.2,10.2,0,0,0-1.78,10.13,9.71,9.71,0,0,0,6.08,6,10.16,10.16,0,0,0,13-12.9A9.72,9.72,0,0,0,66.62,40.4ZM14,57a7.14,7.14,0,0,1-6.6-9.84A6.71,6.71,0,0,1,11.2,43.3a7.16,7.16,0,0,1,9.27,3.6,3.52,3.52,0,0,0,0,5.88A7.12,7.12,0,0,1,14,57Zm46.28-.5a6.71,6.71,0,0,1-3.92-3.95,7.18,7.18,0,0,1,1-7.08l3.71,3.65a1.52,1.52,0,0,0,1.06.43,1.55,1.55,0,0,0,1.52-1.34,1.26,1.26,0,0,0-.38-1.14l-3.57-3.51a7.15,7.15,0,0,1,6-.24,6.74,6.74,0,0,1,3.87,3.94A7.16,7.16,0,0,1,60.3,56.48Z"/></svg>