<svg id="Layer_1" data-name="Layer 1" xmlns="http://www.w3.org/2000/svg" viewBox="0 0 54.23 51.33"><defs><style>.cls-1{fill:#515150;}</style></defs><path class="cls-1" d="M39.89,42.3l-8.23-5.48a.85.85,0,0,0-1.13.18l-2.4,3.08a2.57,2.57,0,0,1-3.29.68l-.44-.24c-1.6-.87-3.59-2-7.54-5.91s-5-5.94-5.9-7.53l-.24-.45a2.56,2.56,0,0,1,.67-3.29L14.47,21a.86.86,0,0,0,.19-1.14L9.17,11.59A.84.84,0,0,0,8,11.33L4.6,13.39a3.38,3.38,0,0,0-1.52,2C2,19.47,2.9,26.67,13.85,37.62S32,49.53,36.13,48.4a3.33,3.33,0,0,0,1.95-1.52l2.06-3.44A.85.85,0,0,0,39.89,42.3Z"/><path class="cls-1" d="M51.38,2.71A.48.48,0,0,0,51,2.57H14.52a.48.48,0,0,0-.34.14.41.41,0,0,0-.14.34V15.74l2.07,3.11a2.59,2.59,0,0,1-.57,3.47l-3.07,2.4a.83.83,0,0,0-.23,1.06l.25.46a22,22,0,0,0,2.91,4.24H51a.48.48,0,0,0,.48-.47v-27A.48.48,0,0,0,51.38,2.71ZM26.61,18.56h0l-8.93,9.56a.86.86,0,0,1-1.23.05.87.87,0,0,1,0-1.23l8.93-9.57a.87.87,0,0,1,1.27,1.19Zm6.17-.68A2.92,2.92,0,0,1,31,17.3l-14.57-11a.87.87,0,0,1,1.06-1.39L32.09,15.91a1.17,1.17,0,0,0,1.38,0L48,4.86a.87.87,0,0,1,1.05,1.39L34.52,17.3A2.87,2.87,0,0,1,32.78,17.88ZM49.16,28.17a.87.87,0,0,1-.63.23.85.85,0,0,1-.6-.28L39,18.56a.87.87,0,0,1,1.27-1.19l8.93,9.57A.87.87,0,0,1,49.16,28.17Z"/></svg>