<?xml version="1.0" encoding="UTF-8" standalone="no"?>
<!DOCTYPE svg PUBLIC "-//W3C//DTD SVG 1.1//EN" "http://www.w3.org/Graphics/SVG/1.1/DTD/svg11.dtd">
<svg version="1.1" xmlns="http://www.w3.org/2000/svg" xmlns:xlink="http://www.w3.org/1999/xlink" preserveAspectRatio="xMidYMid meet" viewBox="18.5 56.500000000000014 213.5 64.99999999999999" width="209" height="60.5"><defs><path d="M156.83 85.9L151.42 71.25L141.11 71.25L120.55 83.13C116.09 83.13 113.61 83.13 113.11 83.13C107.19 83.13 101.64 80.65 97.26 76.65C95.46 75.01 93.1 74.01 90.53 74.01C90.15 74.01 88.26 74.01 84.86 74.01L80.46 70.74L101.14 85.9L156.83 85.9Z" id="b7VbLGFBa"></path><path d="M155.84 85.35L147.86 65.81L141.4 65.81L120.84 77.7C116.38 77.7 113.89 77.7 113.4 77.7C107.48 77.7 101.93 75.22 97.55 71.21C95.75 69.58 93.39 68.58 90.82 68.58C89.87 68.58 82.22 68.58 81.27 68.58C80.41 68.58 80.05 69.69 80.75 70.2C82.13 71.21 89.02 76.26 101.43 85.35L155.84 85.35Z" id="a1gmr3ThZn"></path><path d="M86.87 109.06C79.57 109.06 73.66 103.11 73.66 95.77C73.66 88.43 79.57 82.48 86.87 82.48C94.16 82.48 100.08 88.43 100.08 95.77C100.08 103.11 94.16 109.06 86.87 109.06Z" id="hlJ83mL4r"></path><path d="M86.85 100.09C84.49 100.09 82.57 98.17 82.57 95.79C82.57 93.42 84.49 91.5 86.85 91.5C89.2 91.5 91.12 93.42 91.12 95.79C91.12 98.17 89.2 100.09 86.85 100.09Z" id="bCbACECyg"></path><path d="M104.54 84.72C106.58 87.99 107.76 91.86 107.76 96.01C107.76 107.75 98.3 117.27 86.64 117.27C74.97 117.27 65.51 107.75 65.51 96.01C65.51 84.27 74.97 74.75 86.64 74.75" id="abCvDoJ4w"></path><path d="M161.95 109.06C169.25 109.06 175.16 103.11 175.16 95.77C175.16 88.43 169.25 82.48 161.95 82.48C154.66 82.48 148.74 88.43 148.74 95.77C148.74 103.11 154.66 109.06 161.95 109.06Z" id="bzg3acyD"></path><path d="M161.98 100.09C164.33 100.09 166.25 98.17 166.25 95.79C166.25 93.42 164.33 91.5 161.98 91.5C159.62 91.5 157.71 93.42 157.71 95.79C157.71 98.17 159.62 100.09 161.98 100.09Z" id="b66NUEPA8"></path><path d="M141.5 100.36C141.85 102.05 142.41 103.71 143.2 105.33C148.31 115.88 160.96 120.26 171.45 115.12C181.93 109.97 186.29 97.24 181.17 86.69C176.06 76.14 163.41 71.76 152.92 76.9" id="c1oTncnOgW"></path><path d="M161.77 95.06L145.5 58L130.88 62.38" id="e1PgxWHoJY"></path><path d="M148.36 63.78L152.51 61.91L155.21 68.17L152.24 75.18" id="d2k85P1Ug1"></path><path d="M121.71 107.66C118.8 107.66 116.45 105.29 116.45 102.36C116.45 99.44 118.8 97.07 121.71 97.07C124.62 97.07 126.97 99.44 126.97 102.36C126.97 105.29 124.62 107.66 121.71 107.66Z" id="b3o52Aufh"></path><path d="M135.8 107.66C132.89 107.66 130.53 105.29 130.53 102.36C130.53 99.44 132.89 97.07 135.8 97.07C138.7 97.07 141.06 99.44 141.06 102.36C141.06 105.29 138.7 107.66 135.8 107.66Z" id="f2e2RV9x44"></path><path d="M105.63 85.35L117.36 107.82L140.6 107.82L147.68 86.81L114.37 86.81L117.38 93.16L144.42 93.16" id="brct4UpQu"></path><path d="M92.55 78.9L87.51 94.97L109.7 94.97" id="b1VFIvHyDB"></path><path d="M229 118.5L150 118.5" id="b1at0LKtdq"></path><path d="M124 118.5L20 118.5" id="i18r80UKl"></path><path d="M144 118.5L130 118.5" id="f5veHJ00j4"></path></defs><g><g><use xlink:href="#b7VbLGFBa" opacity="1" fill="#f7f7f7" fill-opacity="1"></use><g><use xlink:href="#b7VbLGFBa" opacity="1" fill-opacity="0" stroke="#000000" stroke-width="1" stroke-opacity="0"></use></g></g><g><use xlink:href="#a1gmr3ThZn" opacity="1" fill="#000000" fill-opacity="0"></use><g><use xlink:href="#a1gmr3ThZn" opacity="1" fill-opacity="0" stroke="#d2d2d2" stroke-width="3" stroke-opacity="1"></use></g></g><g><use xlink:href="#hlJ83mL4r" opacity="1" fill="#000000" fill-opacity="0"></use><g><use xlink:href="#hlJ83mL4r" opacity="1" fill-opacity="0" stroke="#d2d2d2" stroke-width="3" stroke-opacity="1"></use></g></g><g><use xlink:href="#bCbACECyg" opacity="1" fill="#000000" fill-opacity="0"></use><g><use xlink:href="#bCbACECyg" opacity="1" fill-opacity="0" stroke="#d2d2d2" stroke-width="3" stroke-opacity="1"></use></g></g><g><use xlink:href="#abCvDoJ4w" opacity="1" fill="#000000" fill-opacity="0"></use><g><use xlink:href="#abCvDoJ4w" opacity="1" fill-opacity="0" stroke="#d2d2d2" stroke-width="3" stroke-opacity="1"></use></g></g><g><use xlink:href="#bzg3acyD" opacity="1" fill="#000000" fill-opacity="0"></use><g><use xlink:href="#bzg3acyD" opacity="1" fill-opacity="0" stroke="#d2d2d2" stroke-width="3" stroke-opacity="1"></use></g></g><g><use xlink:href="#b66NUEPA8" opacity="1" fill="#000000" fill-opacity="0"></use><g><use xlink:href="#b66NUEPA8" opacity="1" fill-opacity="0" stroke="#d2d2d2" stroke-width="3" stroke-opacity="1"></use></g></g><g><use xlink:href="#c1oTncnOgW" opacity="1" fill="#000000" fill-opacity="0"></use><g><use xlink:href="#c1oTncnOgW" opacity="1" fill-opacity="0" stroke="#d2d2d2" stroke-width="3" stroke-opacity="1"></use></g></g><g><use xlink:href="#e1PgxWHoJY" opacity="1" fill="#000000" fill-opacity="0"></use><g><use xlink:href="#e1PgxWHoJY" opacity="1" fill-opacity="0" stroke="#d2d2d2" stroke-width="3" stroke-opacity="1"></use></g></g><g><use xlink:href="#d2k85P1Ug1" opacity="1" fill="#000000" fill-opacity="0"></use><g><use xlink:href="#d2k85P1Ug1" opacity="1" fill-opacity="0" stroke="#d2d2d2" stroke-width="3" stroke-opacity="1"></use></g></g><g><use xlink:href="#b3o52Aufh" opacity="1" fill="#000000" fill-opacity="0"></use><g><use xlink:href="#b3o52Aufh" opacity="1" fill-opacity="0" stroke="#d2d2d2" stroke-width="3" stroke-opacity="1"></use></g></g><g><use xlink:href="#f2e2RV9x44" opacity="1" fill="#000000" fill-opacity="0"></use><g><use xlink:href="#f2e2RV9x44" opacity="1" fill-opacity="0" stroke="#d2d2d2" stroke-width="3" stroke-opacity="1"></use></g></g><g><use xlink:href="#brct4UpQu" opacity="1" fill="#000000" fill-opacity="0"></use><g><use xlink:href="#brct4UpQu" opacity="1" fill-opacity="0" stroke="#d2d2d2" stroke-width="3" stroke-opacity="1"></use></g></g><g><use xlink:href="#b1VFIvHyDB" opacity="1" fill="#000000" fill-opacity="0"></use><g><use xlink:href="#b1VFIvHyDB" opacity="1" fill-opacity="0" stroke="#d2d2d2" stroke-width="3" stroke-opacity="1"></use></g></g><g><use xlink:href="#b1at0LKtdq" opacity="1" fill="#000000" fill-opacity="0"></use><g><use xlink:href="#b1at0LKtdq" opacity="1" fill-opacity="0" stroke="#d2d2d2" stroke-width="3" stroke-opacity="1"></use></g></g><g><use xlink:href="#i18r80UKl" opacity="1" fill="#000000" fill-opacity="0"></use><g><use xlink:href="#i18r80UKl" opacity="1" fill-opacity="0" stroke="#d2d2d2" stroke-width="3" stroke-opacity="1"></use></g></g><g><use xlink:href="#f5veHJ00j4" opacity="1" fill="#000000" fill-opacity="0"></use><g><use xlink:href="#f5veHJ00j4" opacity="1" fill-opacity="0" stroke="#d2d2d2" stroke-width="3" stroke-opacity="1"></use></g></g></g></svg>