<svg xmlns="http://www.w3.org/2000/svg" width="164.897" height="164.898" viewBox="0 0 164.897 164.898">
  <g id="catalogo" transform="translate(-818 -5653.486)">
    <g id="Grupo_142" data-name="Grupo 142" transform="translate(337.954 180)">
      <g id="Grupo_113" data-name="Grupo 113" transform="translate(480.046 5473.486)">
        <path id="Trazado_109" data-name="Trazado 109" d="M1807.138-97.96h-63.9a50.572,50.572,0,0,0-50.5,50.5v63.9a50.572,50.572,0,0,0,50.5,50.5h63.9a50.572,50.572,0,0,0,50.5-50.5v-63.9A50.572,50.572,0,0,0,1807.138-97.96Zm44.368,114.4a44.427,44.427,0,0,1-44.368,44.368h-63.9a44.427,44.427,0,0,1-44.368-44.368v-63.9a44.427,44.427,0,0,1,44.368-44.368h63.9a44.427,44.427,0,0,1,44.368,44.368Z" transform="translate(-1692.74 97.96)" fill="#fff"/>
        <path id="Trazado_171" data-name="Trazado 171" d="M1847.154-51.812v63.9a44.427,44.427,0,0,1-44.368,44.368h-63.9a44.427,44.427,0,0,1-44.368-44.368v-63.9a44.427,44.427,0,0,1,44.368-44.368h63.9A44.427,44.427,0,0,1,1847.154-51.812Z" transform="translate(-1688.388 102.312)" fill="#b61b27"/>
      </g>
      <g id="Grupo_131" data-name="Grupo 131" transform="translate(523.308 5517.678)">
        <g id="Grupo_130" data-name="Grupo 130">
          <g id="Grupo_128" data-name="Grupo 128">
            <path id="Trazado_174" data-name="Trazado 174" d="M1744.489-8.607a3.045,3.045,0,0,1-.765-.1l-36.176-9.49a3.012,3.012,0,0,1-2.25-2.914v-61a3.007,3.007,0,0,1,1.175-2.387,3,3,0,0,1,2.607-.53l35.384,9.29,35.408-9.29a3,3,0,0,1,2.607.53,3.011,3.011,0,0,1,1.175,2.387v61a3.015,3.015,0,0,1-2.25,2.914l-36.148,9.49A3.049,3.049,0,0,1,1744.489-8.607Zm-33.162-14.829,33.162,8.7,33.138-8.7V-78.207l-32.4,8.5a3.027,3.027,0,0,1-1.529,0l-32.374-8.5Z" transform="translate(-1705.299 85.131)" fill="#fff"/>
          </g>
          <g id="Grupo_129" data-name="Grupo 129" transform="translate(36.164 14.19)">
            <rect id="Rectángulo_130" data-name="Rectángulo 130" width="6.028" height="57.044" fill="#fff"/>
          </g>
        </g>
      </g>
    </g>
  </g>
</svg>
